<svg width="100" height="19" viewBox="0 0 900 168" fill="none" xmlns="http://www.w3.org/2000/svg">
<path d="M48.7261 0H0L42.516 131.608L66.4013 56.6084L48.7261 0ZM230.016 0L194.905 107.723L175.319 167.198H220.94L275.16 0H230.016ZM161.226 0H117.755L82.4046 106.768L63.774 167.198H104.857L138.296 65.446L155.972 121.815L178.424 55.4141L161.226 0Z" fill="#0032CB"/>
<path d="M443.465 29.1402C437.255 19.8249 428.656 12.6593 417.669 7.64333C406.443 2.6274 393.306 0 378.258 0H301.825V37.2612H375.392C384.946 37.2612 392.35 39.4109 397.366 43.7103C402.143 48.0096 404.771 54.2198 404.771 61.8631C404.771 69.7453 402.143 75.7167 397.366 80.016C392.35 84.3154 384.946 86.2262 375.392 86.2262H301.825V167.198H349.118V123.487H378.258C393.306 123.487 406.443 121.099 417.669 116.083C428.656 111.067 437.255 103.901 443.465 94.5861C449.436 85.5097 452.541 74.5224 452.541 61.8631C452.541 49.4427 449.436 38.4555 443.465 29.1402Z" fill="#0032CB"/>
<path d="M532.134 0H485.319V71.1785L532.134 20.3026V0ZM580.622 74.0447L648.934 0H596.864L532.134 69.5065L485.319 119.905V167.198H532.134V125.398L549.809 106.529L597.58 167.198H652.517L580.622 74.0447Z" fill="#0032CB"/>
<path d="M674.877 0V167.198H722.171V0H674.877Z" fill="#0032CB"/>
<path d="M801.592 37.5001V167.198H848.885V37.5001H900V0H750.239V37.5001H801.592Z" fill="#0032CB"/>
</svg>
